<?xml version="1.0" encoding="UTF-8"?><svg id="Layer_1" xmlns="http://www.w3.org/2000/svg" viewBox="0 0 1115 1050"><rect width="223" height="210"/><rect x="223" y="210" width="223" height="210"/><rect x="446" y="420" width="223" height="210"/><rect y="420" width="223" height="210"/><rect x="446" width="223" height="210"/><rect x="223" y="630" width="223" height="210"/><rect y="840" width="223" height="210"/><rect x="446" y="840" width="223" height="210"/><rect x="669" y="210" width="223" height="210"/><rect x="669" y="630" width="223" height="210"/><rect x="892" y="840" width="223" height="210"/><rect x="892" y="420" width="223" height="210"/><rect x="892" width="223" height="210"/><rect x="947.8" y="263" width="111.14" height="104.66"/><rect x="724.73" y="472.33" width="111.14" height="104.66"/><rect x="956.73" y="682.33" width="111.14" height="104.66"/><rect x="501.73" y="682.33" width="111.14" height="104.66"/><rect x="724.73" y="892.33" width="111.14" height="104.66"/><rect x="724.51" y="53.07" width="111.14" height="104.66"/><rect x="501.51" y="263.07" width="111.14" height="104.66"/><rect x="278.51" y="473.07" width="111.14" height="104.66"/><rect x="278.56" y="52.89" width="111.14" height="104.66"/><rect x="55.56" y="262.89" width="111.14" height="104.66"/><rect x="278.56" y="891.89" width="111.14" height="104.66"/><rect x="55.56" y="681.89" width="111.14" height="104.66"/></svg>