<?xml version="1.0" encoding="UTF-8"?><svg id="Layer_2" xmlns="http://www.w3.org/2000/svg" viewBox="0 0 406.4 664.75"><defs><style>.cls-1{fill:none;stroke:#fff;stroke-miterlimit:10;stroke-width:3px;}.cls-2{fill:#fff;}</style></defs><path class="cls-1" d="M160.56,289.73c-3.13-9.81-13.5-6.52-29.91-19.88-10.81-8.8-21.13-22.29-23.62-30.35-.29-.95-.93-3.29-2.67-5.96-2.85-4.36-5.37-4.58-8.54-8.23-.91-1.05-4.77-5.72-5.05-11.68-.21-4.46,1.79-5.35,3.87-12.44,.25-.85,2.36-8.23,1.96-15.96-.38-7.35-2.83-11.27-4.37-15.9-3.67-11.08-.39-21.19,4.92-37.55,2.06-6.35,6.8-19.19,16.73-33.41,13.15-18.82,27.88-29.29,35.58-34.66,11.01-7.68,24.22-16.88,44.33-21.22,7.48-1.61,26.42-4.82,48.95,1.22,32.46,8.69,50.96,30.82,61.81,43.8,19.36,23.16,25.9,45.02,27.75,51.88,4.49,16.61,7.09,26.21,2.85,36.55-10.2,24.89-11.56,27.5-11.56,27.5-.97,1.85-3.38,6.37-1.84,8,1.12,1.18,3.77-1.49,6.4-.6,1.89,.64,3.02,2.8,3.35,4.17,1.47,6.02-9.09,10.44-17.89,24.62-2.59,4.17-1.97,4.27-4.65,9.03-1.94,3.46-6.86,11.24-21.05,24.44-11.76,10.94-24.41,20.46-24.41,20.46-.24,.82-.56,2.1-.7,3.7-.32,3.57,.11,10.06,3.46,11.61,1.7,.79,2.65-.38,4.64-.13,4.22,.55,6.68,6.7,8.6,11.76,6.05,15.94,10.52,30.88,10.52,30.88,0,1.62,.24,3.61,1.43,4.19,2.45,1.19,7.5-4.47,9.93-7.2,4.25-4.76,6.1-8.18,9.57-13.56,2.17-3.36,5.67-8.8,10.48-14.85,6.07-7.65,8.43-8.97,13.2-16.27,2.17-3.32,2.3-3.99,4.15-6.38,1.8-2.32,5.71-7.35,11.98-10.69,3.79-2.02,12.39-6.61,19.51-2.69,6.43,3.54,7.55,11.78,7.84,13.93,.85,6.29-.8,14.82-6.37,19.81-3.18,2.85-6.41,3.43-8.29,7.57-1.1,2.42-.72,3.79-1.25,6.74-.95,5.21-3.56,8.66-6.08,12.11-6.38,8.72-16.61,23.49-20.99,30.16-8.87,13.52-9.02,17.05-16.16,23.23-4.44,3.84-8.06,6.98-13.9,8.73-7.49,2.25-11.92,.21-18.19,4.35-1.35,.89-4.51,3.03-6.16,6.94-1.75,4.13-.91,8.1-.62,9.48,3.54,17.42,3.21,35.46,6.61,52.9t5.29,42.33c6.32,50.57,9.48,75.85,9.48,75.85,.99,2.44,4.24,10.05,1.56,12.47-2.3,2.08-7.92-.62-9.51-1.38-10.35-4.96-13.29-14.87-17.04-13.9-1.78,.46-1.4,2.75-3.62,5.42-2.36,2.86-5.78,3.85-18.23,4.74-18.27,1.31-22.23-.03-25.19-2-1.74-1.16-4.05-2.69-5.07-5.52-1.31-3.65,.69-6.25-.92-8.99-.7-1.18-2.22-2.65-6.03-3.31-3.62-14.68-7.23-29.36-10.85-44.04-.89-.82-2.77-2.36-4.4-1.84-1.68,.54-2.25,2.99-2.48,3.97-1.34,5.72-5.36,22.71-10.68,45.68-1.82-.14-4.16-.08-4.94,1.24-.58,.99,0,2.25,.28,3.12,1.64,5.03-2.03,10.8-2.84,12.08-1.86,2.93-5.6,4.43-12.99,7.3-12.7,4.94-17.85,4.59-19.57,4.42-2.91-.29-6.93-.75-9.16-3.7-1.94-2.57-1.11-5.17-2.53-5.7-1.95-.72-5.44,3.45-10.36,9.42-3.88,4.71-5.24,6.97-7.69,6.99-1.99,.02-3.78-1.45-4.68-2.99-1.27-2.2-1.03-5.09,.65-7.31,6.14-58.64,12.27-117.29,18.41-175.93,.16-1.36,.29-3.38-.06-5.76-.7-4.87-2.92-8.32-4.29-10.3-5.2-7.5-11.56-12.93-16.4-17.48,0,0-4.68-4.98-14.03-14.95-7.18-7.65-14.35-15.3-21.53-22.94-11.96-12.74-17.93-19.11-17.93-19.11,0,0-4.93-3.52-10.48-11.17-1.34-1.84-3.33-4.83-2.34-7.19,.69-1.65,2.52-2.21,2.32-2.93-.25-.91-3.29-.37-5.92-.72-7.83-1.06-12.32-10.08-12.53-10.51-.98-2.03-3.93-8.17-1.1-13.53,2.4-4.54,7.53-5.82,11.57-6.83,9.07-2.27,16.65,.16,21.81,1.86,5.65,1.86,8.97,2.96,11.01,6.24,1.66,2.68,1.47,5.18,4.04,6.97,2.2,1.53,3.73,.67,6.24,1.84,3.42,1.59,4.77,5.14,5.87,7.71,5.61,13.09,8.96,10.88,14.32,24.23,2.31,5.75,2.94,9.27,6.24,10.64,2.67,1.11,6.11,.51,8.44-1.1,2.73-1.89,3.63-4.93,4.04-6.24,2.89-9.24,8.9-17.54,20.92-34.14,.54-.75,1.42-1.92,2.94-2.94,3.62-2.42,6.69-1.14,9.18-2.2,4.47-1.92,6.8-11.31,4.66-18.02Z"/><circle class="cls-1" cx="156.71" cy="213.21" r="34.14"/><circle class="cls-1" cx="258.72" cy="212.08" r="34.14"/><path class="cls-2" d="M134.55,148.84c3.26,5.36,6.65,10.65,10.17,15.85l.54-2.05c-.86,.54-2-.25-2.79-.63-.92-.44-1.86-.84-2.85-1.14-2.13-.63-4.38-.83-6.58-.61-1.02,.1-1.64,.87-1.45,1.9l3.33,17.45c.36,1.89,3.25,1.09,2.89-.8l-3.33-17.45-1.45,1.9c2.56-.26,5.16,.05,7.51,1.14,1.98,.91,4.12,2.16,6.22,.83,.65-.41,1.01-1.36,.54-2.05-3.52-5.2-6.91-10.48-10.17-15.85-1-1.65-3.6-.14-2.59,1.51h0Z"/><path class="cls-2" d="M96.04,201.37c8.68,3.37,17.66,5.88,26.83,7.52,1.89,.34,2.7-2.55,.8-2.89-9.17-1.63-18.15-4.15-26.83-7.52-1.8-.7-2.58,2.2-.8,2.89h0Z"/><path class="cls-2" d="M192.34,215.23c10.47,.39,20.96,.43,31.44,.11,1.93-.06,1.93-3.06,0-3-10.48,.31-20.96,.27-31.44-.11-1.93-.07-1.93,2.93,0,3h0Z"/><path class="cls-2" d="M294.76,214.32c8.61-.54,17.21-1.25,25.8-2.13,1.9-.2,1.92-3.2,0-3-8.58,.88-17.19,1.59-25.8,2.13-1.92,.12-1.93,3.12,0,3h0Z"/><path class="cls-2" d="M183.78,267.2c11.84,9.6,29.59,13.46,43.74,6.74,3.77-1.79,7.03-4.47,9.36-7.93,1.08-1.61-1.52-3.11-2.59-1.51-3.77,5.61-10.41,8.42-16.89,9.37-7.03,1.04-14.35,0-20.94-2.6-3.8-1.5-7.39-3.61-10.56-6.18-1.49-1.21-3.62,.9-2.12,2.12h0Z"/><path class="cls-2" d="M139.43,608.23l21.83-20.8,10.81-10.3c3.09-2.95,6.39-5.81,8.8-9.37s3.27-7.8,3.83-12.04c.66-4.97,1.25-9.95,1.87-14.92,1.24-9.9,2.47-19.79,3.69-29.69,2.46-19.89,4.9-39.78,7.3-59.67s4.79-39.79,7.15-59.69c2.36-19.9,4.69-39.8,6.99-59.71,.29-2.52,.58-5.05,.87-7.57l-2.95,.4c4.78,18.85,4.97,38.39,5.85,57.7,.91,19.95,2.23,39.87,3.93,59.77,1.71,19.89,3.81,39.75,6.31,59.56,1.24,9.85,2.58,19.69,4.02,29.52,1.22,8.38,2.32,16.95,5.84,24.73,3.48,7.68,9.59,12.85,16.47,17.43,3.59,2.4,7.25,4.7,10.62,7.41s6.6,5.75,9.52,9.01c1.51,1.69,2.95,3.43,4.31,5.25,1.15,1.52,3.75,.03,2.59-1.51-5.27-7.01-11.54-13.14-18.72-18.19-6.69-4.7-14.38-8.64-19.16-15.51-4.79-6.89-6.44-15.36-7.7-23.5-1.5-9.67-2.82-19.37-4.08-29.08-2.56-19.71-4.73-39.47-6.51-59.26s-3.16-39.62-4.15-59.47-.93-38.63-4.65-57.55c-.47-2.38-1-4.75-1.6-7.1-.45-1.76-2.76-1.18-2.95,.4-2.28,19.72-4.58,39.44-6.9,59.15-2.33,19.71-4.68,39.43-7.06,59.14-2.37,19.62-4.76,39.23-7.18,58.84-1.22,9.9-2.45,19.79-3.68,29.69-.61,4.85-1.21,9.71-1.82,14.56-.59,4.69-.91,9.53-2,14.13-1.03,4.34-3.41,7.64-6.53,10.75-3.33,3.31-6.78,6.49-10.18,9.73l-21.62,20.61-5.3,5.05c-1.4,1.33,.72,3.45,2.12,2.12h0Z"/><path class="cls-2" d="M194.75,472.56h28.15c1.93,0,1.93-3,0-3h-28.15c-1.93,0-1.93,3,0,3h0Z"/><path class="cls-2" d="M139.77,608.57c13.84-7.22,28.39-12.98,43.42-17.21,1.86-.52,1.07-3.42-.8-2.89-15.27,4.3-30.07,10.18-44.13,17.52-1.71,.89-.2,3.48,1.51,2.59h0Z"/><path class="cls-2" d="M225.16,590.96c13.94-.8,27.82-2.41,41.57-4.79,1.9-.33,1.09-3.22-.8-2.89-13.49,2.34-27.1,3.9-40.77,4.68-1.92,.11-1.93,3.11,0,3h0Z"/><path class="cls-2" d="M162.01,291.69c25.92,6.66,52.92,6.3,79.41,4.34,7.53-.56,15.05-1.24,22.56-1.93,1.91-.18,1.92-3.18,0-3-26.3,2.42-52.91,4.84-79.26,1.75-7.38-.86-14.71-2.2-21.91-4.05-1.87-.48-2.67,2.41-.8,2.89h0Z"/><path class="cls-2" d="M156.66,308.79c2.88,3.27,8.42,2.14,10.36,6.46s.39,10.1-.86,14.48c-1.64,5.71-3.86,11.27-5.89,16.85l-6.29,17.26c-4.11,11.28-7.82,22.76-13.99,33.13-2.86,4.79-6.15,9.51-8.1,14.77-1.7,4.57-1.92,10.08,1.18,14.12,2.73,3.56,7.3,4.56,11.54,3.67,4.51-.94,8.09-3.92,10.54-7.73,2.72-4.22,4.04-9.18,5.39-13.96l5.06-17.98,10.05-35.72,4.99-17.74c.85-3.04,1.71-6.07,2.56-9.11,.64-2.26,1.29-4.56,2.56-6.55,2.95-4.65,9.09-4.33,13.94-4.68l18.42-1.34,37.08-2.69,9.21-.67c1.91-.14,1.93-3.14,0-3l-36.84,2.67-18.42,1.34-9.46,.69c-2.62,.19-5.27,.29-7.86,.73-2.39,.41-4.68,1.26-6.52,2.87s-2.89,3.66-3.73,5.81c-.96,2.47-1.58,5.08-2.3,7.62l-2.5,8.87-9.99,35.48c-3.29,11.7-6.52,23.43-9.89,35.11-1.35,4.68-2.92,9.61-6.31,13.25-2.77,2.97-7.24,4.85-11.3,3.79-4.67-1.23-6.28-6.32-5.5-10.67,.98-5.47,4.47-10.37,7.3-15.03,3.01-4.96,5.72-9.99,7.95-15.35s4.23-11.11,6.26-16.69c4.16-11.41,8.55-22.76,12.44-34.26,2.56-7.58,6.9-21.76-3.56-25.45-1.88-.66-4.05-.89-5.43-2.46-1.28-1.45-3.39,.68-2.12,2.12h0Z"/><path class="cls-2" d="M266.48,311.26c1.93,0,1.93-3,0-3s-1.93,3,0,3h0Z"/><path class="cls-2" d="M363.99,322.38c-2.52-6.06-4.72-12.46-8.12-18.1-2.98-4.94-7.23-9.22-12.84-10.99-1.85-.58-2.64,2.31-.8,2.89,5.15,1.62,8.88,5.81,11.49,10.37,3.01,5.24,5.06,11.05,7.37,16.62,.73,1.76,3.63,.99,2.89-.8h0Z"/><path class="cls-2" d="M50.36,327.01c8.6-5.61,17.36-10.98,26.25-16.11,1.67-.96,.16-3.56-1.51-2.59-8.89,5.13-17.65,10.51-26.25,16.11-1.61,1.05-.11,3.65,1.51,2.59h0Z"/><path class="cls-2" d="M98.45,185.38c8.13-4.26,14.52-10.96,20.16-18.07,2.93-3.69,5.71-7.51,8.56-11.27,1.38-1.83,2.78-3.64,4.23-5.42s2.85-3.62,4.5-5.16c1.03-.96,2.01-1.16,3.3-.53,1.22,.6,2.33,1.51,3.41,2.33,2.11,1.62,4.1,3.4,5.97,5.29,1.76,1.79,3.34,3.71,4.92,5.67,1.37,1.7,2.88,3.44,4.83,4.49,7.41,3.98,12.06-4.3,17.27-7.86,1.21-.82,2.54-1.46,4.03-1.39,1.86,.08,3.42,1.26,4.78,2.41,3.08,2.62,6,5.37,10.34,5.21,3.95-.14,7.5-2.13,11.07-3.62,3.28-1.37,7.08-2.55,10.19-.15s4.51,5.9,7.56,8.1c3.21,2.31,7.02,1.76,10.26-.13,3.05-1.77,5.89-4.85,9.51-5.39,4.12-.61,7.63,3.2,11.31,4.44,4.94,1.68,9.06-1.25,13.08-3.73,1.9-1.17,4.23-2.31,6.53-2.05,2.15,.24,3.3,1.91,3.88,3.84s.78,4.11,1.5,6.08c.77,2.1,2.09,3.84,3.95,5.1,3.75,2.55,8.65,2.19,12.08-.7,1.63-1.38,2.79-3.28,3.29-5.36l-2.74,.36c3.51,4.94,3.05,11.61,7.03,16.34,3.14,3.74,9.81,4.84,12.69,.16l-2.74-.36c1.46,7,3.82,13.76,6.99,20.16,.86,1.73,3.45,.21,2.59-1.51-3.06-6.17-5.29-12.7-6.69-19.45-.27-1.31-2.1-1.4-2.74-.36-.95,1.55-2.93,1.87-4.59,1.48-2.16-.51-3.61-2.26-4.6-4.14-2.32-4.42-2.39-9.68-5.34-13.83-.7-.99-2.41-.99-2.74,.36-1.03,4.26-5.66,6.84-9.75,4.96-1.94-.89-3.31-2.48-3.96-4.5s-.82-4.09-1.49-6.07-1.87-3.85-3.82-4.82-4.37-.91-6.48-.29c-2.29,.67-4.25,1.94-6.24,3.21s-4.14,2.65-6.55,2.65c-4.19,.01-7.4-3.83-11.38-4.77s-7.45,1.04-10.61,3.26c-2.6,1.82-5.86,4.6-9.26,3.29s-5.09-5.33-7.56-7.72c-2.83-2.74-6.43-3.55-10.22-2.64s-7.11,3.02-10.8,4.17c-1.66,.51-3.44,.86-5.16,.45-1.96-.46-3.51-1.77-4.99-3.07-2.89-2.53-5.96-5.03-10.06-4.22-3.27,.65-5.79,3.25-8.08,5.48-2,1.95-4.42,4.65-7.46,4.63-2.11-.01-3.77-1.45-5.12-2.92-1.62-1.76-3.01-3.73-4.61-5.51-1.73-1.92-3.58-3.72-5.55-5.4s-3.96-3.43-6.21-4.57c-2.42-1.24-4.78-.96-6.79,.86-1.67,1.52-3.1,3.4-4.53,5.14-2.95,3.6-5.71,7.35-8.5,11.07-5.37,7.16-10.97,14.49-18.27,19.81-1.81,1.32-3.71,2.5-5.7,3.54-1.71,.9-.2,3.49,1.51,2.59h0Z"/></svg>